Coordinates
version=1
nRows=29
nColumns=24
inDegrees=yes

Units are S.I. units (second, meters, Newtons, ...)
Angles are in degrees.

endheader
time	pelvis_tilt	pelvis_list	pelvis_rotation	pelvis_tx	pelvis_ty	pelvis_tz	hip_flexion_r	hip_adduction_r	hip_rotation_r	knee_angle_r	ankle_angle_r	subtalar_angle_r	mtp_angle_r	hip_flexion_l	hip_adduction_l	hip_rotation_l	knee_angle_l	ankle_angle_l	subtalar_angle_l	mtp_angle_l	lumbar_extension	lumbar_bending	lumbar_rotation
      1.39566667	     -1.75567113	     -0.26164539	    -15.46956406	      0.95621194	      0.97675916	      0.35041193	    -16.63474753	     -1.28808341	      4.02571253	    -10.35998815	     14.36760894	      4.43546740	     13.50176181	     25.47143161	     -5.10351774	    -16.32238114	      5.77581674	      4.23152605	     -9.25802197	      8.95536756	     -2.04961115	      0.78675038	     13.70598123
      1.39983333	     -1.70061593	     -0.15505338	    -15.61369298	      0.96242121	      0.97628383	      0.35018994	    -16.81485140	     -1.56673517	      4.00451111	    -10.72812953	     14.13274473	      4.43126585	     17.57359919	     25.40291622	     -5.04158019	    -16.21977059	      5.37279157	      4.35031310	     -9.59688846	      8.17624354	     -2.04478865	      0.61462310	     13.91189549
      1.40400000	     -1.67817089	     -0.02862551	    -15.76685498	      0.96868438	      0.97579139	      0.34996827	    -16.94082435	     -1.85785498	      4.02042660	    -11.13487859	     13.94618669	      4.45421666	     17.58962790	     25.38669572	     -4.97354100	    -16.18562756	      4.89366477	      4.49093505	     -9.80553993	      8.17813895	     -1.98955585	      0.44127040	     14.01319874
      1.40816667	     -1.64087745	      0.11168939	    -15.91256316	      0.97498119	      0.97534092	      0.34970809	    -17.05767339	     -2.16934718	      3.98404004	    -11.58197208	     13.75141729	      4.53721286	     17.65486111	     25.35283677	     -4.87692446	    -16.14704334	      4.40100625	      4.51415541	    -10.07670548	      8.18855747	     -1.95730661	      0.25843497	     14.22774019
      1.41233333	     -1.59972097	      0.25628023	    -16.04501604	      0.98131804	      0.97492768	      0.34942907	    -17.17849700	     -2.47819479	      3.98104034	    -12.02763560	     13.49405418	      4.50193133	     17.68063421	     25.31934130	     -4.76657828	    -16.11829677	      3.86773342	      4.56616982	    -10.28706352	      8.19411743	     -1.91265674	      0.06735433	     14.27336039
      1.41650000	     -1.55678647	      0.43743677	    -16.18600255	      0.98772608	      0.97453231	      0.34913658	    -17.26653763	     -2.83506798	      3.92114703	    -12.52192814	     13.26463615	      4.61062682	     17.83238287	     25.26062620	     -4.60900351	    -16.03547150	      3.37681526	      4.46236008	    -10.66163677	      8.21912145	     -1.86394483	     -0.17034823	     14.52146062
      1.42066667	     -1.51395427	      0.62721933	    -16.31407271	      0.99421070	      0.97417084	      0.34883101	    -17.36040526	     -3.19223648	      3.90054931	    -13.00270502	     12.95502609	      4.58002026	     17.91769560	     25.20961655	     -4.43524982	    -16.01181833	      2.85338162	      4.39529820	    -10.90590199	      8.23514814	     -1.78729071	     -0.42714768	     14.58548992
      1.42483333	     -1.46514499	      0.82784137	    -16.43274272	      1.00067868	      0.97383164	      0.34845448	    -17.41597701	     -3.56706932	      3.80747268	    -13.56104281	     12.68572220	      4.67521248	     18.21624880	     25.14707665	     -4.23237584	    -15.90274764	      2.34894801	      4.13860792	    -11.35495617	      8.29572071	     -1.74339554	     -0.66788138	     14.80053379
      1.42900000	     -1.42135779	      1.02993503	    -16.52919340	      1.00724200	      0.97353690	      0.34808523	    -17.49807741	     -3.92420434	      3.78999388	    -14.04880423	     12.20743417	      4.49425285	     21.60113451	     25.06783619	     -4.01038849	    -15.74645617	      1.88396408	      3.85079677	    -11.88259929	      9.01001955	     -1.66698480	     -0.92335668	     14.72760386
      1.43316667	     -1.37312955	      1.28727802	    -16.62394584	      1.01384654	      0.97324785	      0.34769160	    -17.52653307	     -4.34532234	      3.69008566	    -14.63697900	     11.86354153	      4.50134368	     21.64592139	     25.03825125	     -3.74354418	    -15.80773128	      1.32268952	      3.61540743	    -11.98838895	      9.02085788	     -1.57357827	     -1.25768714	     14.86898538
      1.43733333	     -1.31518220	      1.53956114	    -16.72963509	      1.02044117	      0.97300615	      0.34725051	    -17.52116246	     -4.77428904	      3.55621010	    -15.30259262	     11.52489204	      4.61002630	     21.81069118	     24.97935383	     -3.46860254	    -15.81415523	      0.80778997	      3.25199982	    -12.28652040	      9.05928397	     -1.49923686	     -1.55590304	     15.08334821
      1.44150000	     -1.26011389	      1.80058720	    -16.79028004	      1.02711987	      0.97279934	      0.34679659	    -17.54012017	     -5.18619697	      3.45355790	    -15.91582510	     11.04127001	      4.50452155	     21.87187898	     24.94327598	     -3.17238162	    -15.84251268	      0.25349815	      2.93290299	    -12.46836200	      9.07360447	     -1.38714199	     -1.88510512	     15.10446044
      1.44566667	     -1.21328149	      2.09405212	    -16.87902435	      1.03376049	      0.97260734	      0.34630772	    -17.47210981	     -5.64733462	      3.32078134	    -16.65182902	     10.64105884	      4.59666680	     22.17340154	     24.87409761	     -2.83309905	    -15.75487657	     -0.18033744	      2.35698209	    -12.97231148	      9.14855394	     -1.29293061	     -2.23278072	     15.25198646
      1.44983333	     -1.15347467	      2.38704166	    -16.88738225	      1.04049615	      0.97245802	      0.34574230	    -17.45181073	     -6.08125128	      3.15002035	    -17.33283973	     10.04027520	      4.45656512	     26.84155422	     24.83315259	     -2.46778506	    -15.68801454	     -0.69790165	      1.89454595	    -13.30416934	     10.34909886	     -1.19604610	     -2.60012400	     15.24561463
      1.45400000	     -1.09461331	      2.69493980	    -16.91940000	      1.04721901	      0.97235754	      0.34521420	    -17.39437575	     -6.53045544	      3.03521588	    -18.06770711	      9.46199224	      4.35765932	     26.85760107	     24.80588706	     -2.10470890	    -15.73368158	     -1.23810070	      1.45947606	    -13.43769473	     10.35135033	     -1.08679842	     -2.98507234	     15.27349664
      1.45816667	     -1.04027351	      3.01419136	    -16.93628054	      1.05390502	      0.97225925	      0.34459530	    -17.27204445	     -6.99743357	      2.84306678	    -18.91424151	      8.94184072	      4.40278972	     26.98717402	     24.78107943	     -1.71169298	    -15.66762949	     -1.74773342	      0.89984691	    -13.84123659	     10.37992818	     -0.97832644	     -3.36212589	     15.35174026
      1.46233333	     -0.97399472	      3.34690983	    -16.92724026	      1.06065718	      0.97222529	      0.34396216	    -17.16204259	     -7.46808989	      2.66301784	    -19.75570020	      8.32185023	      4.35447234	     27.20166974	     24.74515319	     -1.29191163	    -15.61234581	     -2.25994498	      0.36994443	    -14.14951148	     10.42507606	     -0.87236909	     -3.76792695	     15.35880865
      1.46650000	     -0.91460376	      3.68250899	    -16.90437719	      1.06738730	      0.97221428	      0.34329435	    -17.01254721	     -7.93556308	      2.47925791	    -20.65159149	      7.66828075	      4.30658090	     27.49410190	     24.73654729	     -0.87097666	    -15.57488676	     -2.80602820	     -0.12180550	    -14.37677139	     10.48337268	     -0.76246567	     -4.17362949	     15.35639294
      1.47066667	     -0.79428225	      4.00579614	    -16.86891420	      1.07412074	      0.97235066	      0.34261239	    -16.93064336	     -8.39678952	      2.32914989	    -21.52904185	      6.85030751	      4.08405224	     29.99337498	     24.63549780	     -0.42426525	    -15.42359565	     -3.29637662	     -0.64252891	    -14.80441004	     10.97410428	     -0.73130101	     -4.58448041	     15.34996320
      1.47483333	     -0.74415039	      4.35591069	    -16.80090257	      1.08083178	      0.97238521	      0.34188314	    -16.71897770	     -8.86102684	      2.12709142	    -22.51746824	      6.12988201	      4.01963323	     30.04328073	     24.68286161	      0.00903451	    -15.45900610	     -3.93289824	     -0.99218508	    -14.76919537	     10.98095575	     -0.60937626	     -5.02172603	     15.32152148
      1.47900000	     -0.67624161	      4.70299959	    -16.72904042	      1.08754226	      0.97249033	      0.34112606	    -16.50070155	     -9.32696246	      1.93776411	    -23.54548675	      5.35905825	      3.94171258	     30.10980020	     24.69999361	      0.45307935	    -15.45604631	     -4.55483207	     -1.33358156	    -14.81990817	     10.98994198	     -0.51433487	     -5.44409088	     15.29129517
      1.48316667	     -0.62298679	      5.05052198	    -16.66367757	      1.09416964	      0.97260133	      0.34032913	    -16.20298660	     -9.79828119	      1.74729595	    -24.67862747	      4.60479971	      3.90682065	     30.27471218	     24.72654374	      0.89696014	    -15.41936303	     -5.15517338	     -1.71391087	    -14.96419099	     11.00820897	     -0.40225428	     -5.83757984	     15.25286712
      1.48733333	     -0.55165033	      5.39598676	    -16.56383103	      1.10083077	      0.97277603	      0.33951020	    -15.93225894	    -10.25550993	      1.56867308	    -25.80044067	      3.77245820	      3.80174232	     30.48321614	     24.73784364	      1.35610630	    -15.35854980	     -5.76816146	     -2.03861120	    -15.09397657	     11.03030373	     -0.32210663	     -6.25605496	     15.20983923
      1.49150000	     -0.45128455	      5.72861402	    -16.44219380	      1.10746345	      0.97303317	      0.33867652	    -15.68891489	    -10.69241737	      1.41809702	    -26.92808253	      2.88852195	      3.64710871	     30.58800331	     24.72861860	      1.81517650	    -15.29768792	     -6.42404441	     -2.25119801	    -15.15886647	     11.03956101	     -0.28996683	     -6.69609523	     15.16759575
      1.49566667	     -0.35706762	      6.05698994	    -16.32148812	      1.11407748	      0.97330400	      0.33781663	    -15.39898703	    -11.12796823	      1.27169885	    -28.12251349	      2.00248535	      3.49368302	     30.68800419	     24.71925184	      2.26978330	    -15.24304298	     -7.06489360	     -2.45771873	    -15.21745646	     11.04758838	     -0.24980008	     -7.10584456	     15.11082336
      1.49983333	     -0.30066261	      6.38041758	    -16.20921109	      1.12061349	      0.97354889	      0.33692734	    -15.01206536	    -11.55441581	      1.14687248	    -29.40453152	      1.13489168	      3.33808478	     30.89555555	     24.73923996	      2.70932530	    -15.18438977	     -7.68839536	     -2.67584956	    -15.30939144	     11.05957867	     -0.16602439	     -7.46251000	     15.03874342
      1.50400000	     -0.19228006	      6.68900279	    -16.06385552	      1.12716932	      0.97390944	      0.33604068	    -14.70341507	    -11.95528005	      1.04905760	    -30.65149417	      0.21647127	      3.13709081	     30.99710576	     24.69802964	      3.16129588	    -15.11193336	     -8.32199366	     -2.78520169	    -15.34018490	     11.06426741	     -0.16686268	     -7.87629166	     14.99288117
      1.50816667	     -0.14684744	      6.98472261	    -15.92852817	      1.13363766	      0.97420216	      0.33512608	    -14.26982624	    -12.33035687	      0.98652200	    -31.98836723	     -0.66505783	      2.88556910	     31.23681625	     24.72162712	      3.57613417	    -15.06904859	     -8.95718556	     -2.92813464	    -15.37295241	     11.06319632	     -0.09044559	     -8.20630084	     14.90997645
      1.51233333	     -0.00347772	      7.25248729	    -15.76961023	      1.14007647	      0.97465127	      0.33419293	    -13.95337918	    -12.69005481	      0.90761255	    -33.30810867	     -1.55312865	      2.65294339	     31.27852506	     24.63111094	      4.00586821	    -15.00480095	     -9.59252093	     -2.94131438	    -15.40087568	     11.06376530	     -0.15545729	     -8.56011643	     14.87151402
